<svg width="200" height="200" viewBox="0 0 200 200" fill="none" xmlns="http://www.w3.org/2000/svg">
<g id="mens-iiit">
<path id="I" d="M101.906 28H99.0938V6.67188L101.906 6.67188V28Z" fill="black"/>
<path id="n" d="M116.466 13.6493L116.108 15.6111C117.628 14.3953 119.339 14.0048 121.244 14.4394C124.509 15.1847 125.736 17.4029 124.923 21.094L122.593 31.305L119.951 30.702L122.285 20.4767C122.529 19.3606 122.46 18.4784 122.077 17.83C121.704 17.1839 120.989 16.7402 119.932 16.499C119.075 16.3034 118.271 16.3602 117.519 16.6695C116.767 16.9787 116.126 17.4633 115.595 18.1234L113.081 29.1342L110.439 28.5311L113.966 13.0789L116.466 13.6493Z" fill="black"/>
<path id="t" d="M140.521 17.7483L138.856 21.2062L141.522 22.49L140.613 24.3773L137.947 23.0934L133.682 31.9492C133.407 32.5211 133.318 33.0094 133.416 33.4141C133.517 33.8101 133.854 34.1458 134.426 34.4212C134.708 34.5568 135.12 34.6904 135.664 34.8221L134.711 36.8018C133.984 36.6685 133.317 36.4556 132.709 36.1632C131.618 35.6378 130.955 34.9117 130.718 33.9849C130.482 33.0581 130.656 31.9875 131.24 30.7733L135.505 21.9176L132.905 20.6656L133.814 18.7783L136.414 20.0304L138.079 16.5725L140.521 17.7483Z" fill="black"/>
<path id="e" d="M145.235 44.3573C143.556 43.0178 142.627 41.3782 142.451 39.4385C142.28 37.4911 142.931 35.5936 144.405 33.7459L144.715 33.3565C145.695 32.1273 146.802 31.2174 148.035 30.6268C149.282 30.0346 150.541 29.8024 151.813 29.9301C153.099 30.0562 154.234 30.512 155.219 31.2974C156.83 32.5822 157.659 34.1113 157.706 35.885C157.753 37.6587 156.988 39.5342 155.411 41.5117L154.708 42.3936L146.313 35.699C145.37 36.9449 144.936 38.2168 145.013 39.5146C145.103 40.8108 145.675 41.879 146.729 42.7193C147.477 43.316 148.233 43.6687 148.996 43.7773C149.758 43.8859 150.535 43.8436 151.326 43.6502L151.817 45.69C149.506 46.4577 147.312 46.0135 145.235 44.3573ZM153.831 33.0382C152.976 32.3563 152.009 32.097 150.929 32.2603C149.856 32.416 148.803 33.0002 147.77 34.013L153.978 38.9631L154.105 38.8028C154.903 37.6776 155.276 36.614 155.226 35.612C155.182 34.6024 154.717 33.7445 153.831 33.0382Z" fill="black"/>
<path id="r" d="M169.98 50.7527C169.778 50.3894 169.528 50.0207 169.229 49.6466C168.121 48.257 166.777 47.786 165.198 48.2334L156.403 55.2477L154.713 53.129L167.105 43.2469L168.749 45.3084L167.345 46.4844C169.006 46.2963 170.345 46.8398 171.362 48.1148C171.69 48.5271 171.887 48.8828 171.95 49.1818L169.98 50.7527Z" fill="black"/>
<path id="." d="M165.349 66.4809C165.771 66.2776 166.183 66.2313 166.583 66.342C166.987 66.4616 167.31 66.7721 167.552 67.2737C167.793 67.7752 167.835 68.2213 167.676 68.612C167.522 69.0116 167.233 69.3131 166.811 69.5164C166.406 69.7113 166.004 69.7425 165.604 69.6099C165.208 69.4861 164.89 69.1734 164.648 68.6719C164.407 68.1704 164.361 67.7264 164.511 67.3399C164.665 66.9622 164.944 66.6759 165.349 66.4809Z" fill="black"/>
<path id="I_2" d="M170.619 85.8369L169.993 83.095L190.787 78.349L191.412 81.091L170.619 85.8369Z" fill="black"/>
<path id="I_3" d="M172 101.906V99.0938H193.328V101.906H172Z" fill="black"/>
<path id="I_4" d="M169.771 117.88L170.396 115.138L191.19 119.884L190.564 122.626L169.771 117.88Z" fill="black"/>
<path id="T" d="M178.416 146.933L181.39 140.756L164.26 132.507L165.474 129.986L182.604 138.236L185.572 132.072L187.658 133.076L180.501 147.937L178.416 146.933Z" fill="black"/>
<path id="._2" d="M158.554 144.334C158.92 144.626 159.14 144.977 159.214 145.385C159.282 145.802 159.142 146.227 158.795 146.663C158.448 147.098 158.064 147.329 157.643 147.355C157.216 147.39 156.819 147.261 156.453 146.968C156.102 146.688 155.899 146.339 155.845 145.921C155.785 145.511 155.928 145.089 156.275 144.653C156.623 144.218 157.003 143.984 157.416 143.952C157.823 143.927 158.202 144.054 158.554 144.334Z" fill="black"/>
<path id="W" d="M153.571 157.97L151.497 156.026L152.608 158.382L158.588 172.648L156.733 174.128L144.236 165.059L142.17 163.408L143.605 165.936L150.114 179.407L147.903 181.17L138.648 161.271L140.652 159.672L153.778 169.084L155.056 170.145L154.305 168.664L148.177 153.672L150.181 152.074L167.51 165.534L165.311 167.287L153.571 157.97Z" fill="black"/>
<path id="i" d="M130.025 165.454L132.467 164.279L139.344 178.559L136.902 179.734L130.025 165.454ZM141.366 182.251C141.557 182.647 141.599 183.039 141.493 183.426C141.378 183.817 141.083 184.127 140.607 184.356C140.132 184.585 139.706 184.622 139.328 184.468C138.951 184.314 138.666 184.039 138.476 183.643C138.285 183.247 138.249 182.858 138.369 182.475C138.488 182.093 138.785 181.787 139.26 181.558C139.735 181.329 140.159 181.288 140.533 181.433C140.898 181.582 141.175 181.855 141.366 182.251Z" fill="black"/>
<path id="n_2" d="M122.631 184.943L122.102 183.021C121.261 184.775 119.888 185.87 117.984 186.305C114.718 187.05 112.65 185.584 111.781 181.906L109.45 171.695L112.092 171.092L114.426 181.317C114.69 182.429 115.135 183.194 115.761 183.612C116.378 184.032 117.215 184.121 118.272 183.88C119.128 183.684 119.828 183.284 120.372 182.679C120.915 182.075 121.282 181.36 121.475 180.535L118.962 169.524L121.604 168.921L125.13 184.373L122.631 184.943Z" fill="black"/>
<path id="n_3" d="M103.162 187.85L103.074 185.857C101.863 187.381 100.281 188.143 98.3281 188.143C94.9785 188.143 93.2891 186.253 93.2598 182.474V172H95.9697V182.488C95.9795 183.631 96.2432 184.476 96.7607 185.022C97.2686 185.569 98.0645 185.843 99.1484 185.843C100.027 185.843 100.799 185.608 101.463 185.14C102.127 184.671 102.645 184.056 103.016 183.294V172H105.726V187.85H103.162Z" fill="black"/>
<path id="e_2" d="M83.3868 169.759C85.4813 170.237 87.0291 171.312 88.03 172.983C89.0288 174.663 89.2653 176.655 88.7394 178.959L88.6285 179.445C88.2787 180.978 87.6765 182.278 86.8219 183.345C85.9556 184.419 84.9217 185.175 83.7201 185.612C82.5069 186.056 81.2861 186.138 80.058 185.858C78.0491 185.399 76.6387 184.381 75.8268 182.803C75.0149 181.226 74.8904 179.204 75.4532 176.738L75.7042 175.639L86.1723 178.028C86.4819 176.496 86.3206 175.162 85.6884 174.026C85.0445 172.897 84.0656 172.183 82.7517 171.883C81.8187 171.67 80.985 171.68 80.2507 171.913C79.5164 172.146 78.8347 172.522 78.2057 173.039L76.8788 171.414C78.6278 169.72 80.7971 169.168 83.3868 169.759ZM80.5534 183.687C81.6198 183.93 82.6038 183.744 83.5056 183.129C84.4052 182.523 85.1004 181.539 85.5912 180.179L77.8508 178.412L77.8052 178.612C77.5749 179.972 77.6998 181.092 78.1799 181.973C78.6579 182.864 79.449 183.435 80.5534 183.687Z" fill="black"/>
<path id="r_2" d="M58.3175 174.734C58.6574 174.973 59.0429 175.197 59.4741 175.404C61.0754 176.175 62.4904 176.017 63.719 174.929L68.6002 164.793L71.0418 165.968L64.1649 180.248L61.7893 179.104L62.5442 177.436C61.1292 178.326 59.687 178.417 58.2176 177.71C57.7425 177.481 57.4114 177.245 57.2244 177.004L58.3175 174.734Z" fill="black"/>
<path id="s" d="M49.716 157.369C49.2593 157.941 49.1238 158.558 49.3093 159.218C49.4812 159.879 50.014 160.754 50.9079 161.841C51.7942 162.923 52.4263 163.877 52.8043 164.703C53.1746 165.523 53.3359 166.276 53.2882 166.962C53.2328 167.643 52.9615 168.288 52.4744 168.899C51.6646 169.914 50.5521 170.432 49.1368 170.453C47.7139 170.467 46.3343 169.942 44.9982 168.876C43.5933 167.756 42.7449 166.486 42.453 165.066C42.1534 163.641 42.4541 162.363 43.3553 161.233L45.4855 162.932C45.0227 163.512 44.872 164.21 45.0334 165.026C45.1872 165.835 45.6382 166.539 46.3864 167.135C47.1576 167.75 47.8947 168.063 48.5978 168.074C49.3009 168.086 49.8686 167.82 50.3009 167.278C50.7089 166.766 50.814 166.22 50.6164 165.637C50.4187 165.055 49.8875 164.225 49.0226 163.148C48.1501 162.065 47.5164 161.098 47.1216 160.246C46.7268 159.394 46.5586 158.61 46.617 157.895C46.6616 157.181 46.9488 156.492 47.4785 155.828C48.3614 154.721 49.5136 154.184 50.935 154.219C52.3504 154.261 53.7644 154.845 55.1769 155.971C56.1694 156.763 56.9074 157.639 57.3908 158.599C57.8743 159.559 58.0839 160.526 58.0199 161.499C57.9421 162.473 57.6109 163.327 57.0264 164.06L54.9076 162.371C55.4357 161.63 55.6038 160.84 55.4119 160C55.2062 159.161 54.6682 158.395 53.7978 157.701C52.9961 157.062 52.2269 156.71 51.4901 156.647C50.7397 156.586 50.1483 156.826 49.716 157.369Z" fill="black"/>
<path id="._3" d="M43.748 147.22C43.3815 147.512 42.9909 147.649 42.5761 147.63C42.1552 147.604 41.7712 147.373 41.4241 146.938C41.0771 146.502 40.9374 146.077 41.0052 145.66C41.0668 145.236 41.2809 144.878 41.6474 144.586C41.9986 144.306 42.3839 144.186 42.8032 144.226C43.2165 144.259 43.5966 144.493 43.9437 144.928C44.2908 145.363 44.4342 145.786 44.3741 146.196C44.3079 146.599 44.0992 146.94 43.748 147.22Z" fill="black"/>
<path id="M" d="M18.729 146.338L31.3826 132.506L12.6784 133.774L11.0958 130.488L30.3118 121.234L31.5321 123.768L24.0489 127.372L15.8575 131.024L34.4557 129.839L35.39 131.779L22.9011 145.549L30.8178 141.427L38.3009 137.824L39.5212 140.358L20.3052 149.611L18.729 146.338Z" fill="black"/>
<path id="e_3" d="M29.9409 112.299C30.4189 114.394 30.1224 116.255 29.0513 117.881C27.9707 119.51 26.2784 120.588 23.9743 121.114L23.4888 121.225C21.9559 121.574 20.5234 121.596 19.1912 121.289C17.8474 120.975 16.7179 120.371 15.8029 119.478C14.8762 118.578 14.2727 117.513 13.9924 116.285C13.5339 114.276 13.8392 112.564 14.9083 111.148C15.9775 109.732 17.745 108.742 20.2108 108.18L21.3105 107.929L23.6998 118.397C25.2144 118.011 26.3463 117.287 27.0955 116.224C27.8329 115.154 28.0517 113.963 27.7518 112.649C27.5389 111.716 27.1681 110.969 26.6395 110.408C26.1109 109.848 25.477 109.397 24.7378 109.055L25.6262 107.154C27.9116 107.995 29.3498 109.71 29.9409 112.299ZM16.1631 115.79C16.4065 116.856 17.0011 117.662 17.947 118.207C18.8833 118.755 20.0708 118.955 21.5095 118.806L19.7428 111.066L19.5428 111.112C18.2178 111.494 17.2626 112.093 16.6773 112.908C16.0824 113.725 15.911 114.685 16.1631 115.79Z" fill="black"/>
<path id="n_4" d="M12.1504 101.162L14.1426 101.074C12.6191 99.8633 11.8574 98.2812 11.8574 96.3281C11.8574 92.9785 13.7471 91.2891 17.5264 91.2598H28V93.9697H17.5117C16.3691 93.9795 15.5244 94.2432 14.9775 94.7607C14.4307 95.2686 14.1572 96.0645 14.1572 97.1484C14.1572 98.0273 14.3916 98.7988 14.8604 99.4629C15.3291 100.127 15.9443 100.645 16.7061 101.016H28V103.726H12.1504V101.162Z" fill="black"/>
<path id="._4" d="M28.0092 85.4617C27.5522 85.3574 27.2018 85.1372 26.958 84.8011C26.7163 84.4555 26.6574 84.0113 26.7813 83.4686C26.9052 82.9259 27.151 82.5513 27.5186 82.3447C27.8885 82.1286 28.3019 82.0728 28.7589 82.1771C29.1969 82.277 29.5308 82.5035 29.7608 82.8565C29.9929 83.2 30.047 83.643 29.9232 84.1857C29.7993 84.7284 29.5583 85.1041 29.2001 85.3129C28.8441 85.5121 28.4472 85.5617 28.0092 85.4617Z" fill="black"/>
<path id="(" d="M25.5733 63.4149C23.7654 62.149 22.1975 60.6935 20.8697 59.0485C19.5475 57.3955 18.5425 55.6128 17.8547 53.7007C17.167 51.7885 16.9044 50.1204 17.067 48.6964L18.8502 49.2654C18.9283 51.0607 19.6241 52.9785 20.9375 55.0188C22.2564 57.051 24.0307 58.9013 26.2601 60.5697L27.2716 61.2959C30.3595 63.458 33.4342 64.7705 36.4959 65.2333C38.3319 65.5056 39.9616 65.4426 41.3849 65.0444L42.4215 66.4498C41.0846 67.0992 39.3813 67.4206 37.3116 67.4139C33.2698 67.3974 29.3571 66.0644 25.5733 63.4149Z" fill="black"/>
<path id="2" d="M48.5865 48.9915L39.8734 59.9173L38.3502 58.7026L36.5399 47.8159C36.2522 46.1875 35.9346 44.9725 35.5871 44.1708C35.2382 43.3554 34.7392 42.6889 34.0902 42.1713C33.2198 41.4772 32.2959 41.1713 31.3184 41.2537C30.3409 41.336 29.502 41.8162 28.8018 42.6942C27.9616 43.7479 27.6086 44.8092 27.743 45.8781C27.8757 46.9333 28.4766 47.8871 29.5455 48.7395L27.8559 50.8582C26.3212 49.6344 25.4732 48.1525 25.3119 46.4126C25.1567 44.665 25.7398 42.9628 27.061 41.306C28.297 39.7561 29.6828 38.8564 31.2182 38.607C32.746 38.3514 34.1856 38.7625 35.537 39.8402C37.1785 41.1493 38.299 43.754 38.8983 47.6544L40.1808 55.9843L46.8571 47.6124L48.5865 48.9915Z" fill="black"/>
<path id="X" d="M47.321 33.0937L46.2217 23.5156L48.8099 21.4516L50.1359 33.9216L62.2338 38.0261L59.6226 40.1084L50.3349 36.873L51.3996 46.6661L48.7999 48.7393L47.5018 36.0222L35.628 31.9638L38.2048 29.9089L47.321 33.0937Z" fill="black"/>
<path id=")" d="M64.3259 23.2643C65.597 25.0326 66.5829 26.8977 67.2835 28.8595C67.9864 30.8077 68.3512 32.8126 68.3778 34.8741C68.4124 36.9299 68.1144 38.6234 67.4838 39.9547L66.0537 38.9441C66.6023 37.1306 66.5385 34.9756 65.8623 32.4789C65.1884 29.9687 63.9958 27.5065 62.2845 25.0925L62.0109 24.7119C60.8139 23.0467 59.528 21.6258 58.1531 20.4493C56.7725 19.2649 55.3614 18.3309 53.9199 17.6472C52.4862 16.9579 51.1529 16.5754 49.9198 16.4996L49.4175 14.8221C50.8803 14.6486 52.5709 14.9006 54.4892 15.5783C56.4154 16.2502 58.1996 17.2348 59.8416 18.5319C61.4916 19.8234 62.9864 21.4009 64.3259 23.2643Z" fill="black"/>
<path id="._5" d="M81.8629 28.8306C81.7586 28.3736 81.8049 27.9624 82.002 27.5969C82.2086 27.2292 82.5832 26.9834 83.1259 26.8595C83.6685 26.7357 84.1127 26.7946 84.4583 27.0362C84.8135 27.2757 85.0432 27.6239 85.1476 28.0809C85.2475 28.5189 85.1884 28.918 84.9701 29.2784C84.7614 29.6365 84.3857 29.8775 83.843 30.0014C83.3003 30.1253 82.8572 30.0711 82.5137 29.839C82.1798 29.6047 81.9628 29.2686 81.8629 28.8306Z" fill="black"/>
</g>
</svg>
